<svg xmlns="http://www.w3.org/2000/svg" width="124.052" height="33.135" viewBox="0 0 124.052 33.135"><defs><style>.a{fill:#fff;}</style></defs><path class="a" d="M-32.688-3.807-44.767-31.349a2.654,2.654,0,0,0-2.491-1.645,2.654,2.654,0,0,0-2.491,1.645L-61.828-3.807a2.764,2.764,0,0,0,1.41,3.572A2.721,2.721,0,0,0-56.8-1.645l2.82-6.486h13.442l2.82,6.486A2.75,2.75,0,0,0-35.226,0,2.438,2.438,0,0,0-34.1-.235,2.723,2.723,0,0,0-32.688-3.807Zm-18.894-9.776,4.324-9.87,4.324,9.87ZM-9.329-22a11.918,11.918,0,0,0-8.93-3.9,11.937,11.937,0,0,0-6.862,2.068v-6.439a2.728,2.728,0,0,0-2.726-2.726,2.728,2.728,0,0,0-2.726,2.726V-2.726A2.728,2.728,0,0,0-27.847,0a2.675,2.675,0,0,0,2.632-2.115A12.386,12.386,0,0,0-18.259,0a11.918,11.918,0,0,0,8.93-3.9,13.326,13.326,0,0,0,3.384-9.024A13.359,13.359,0,0,0-9.329-22Zm-8.93,16.544c-3.995,0-6.862-3.149-6.862-7.473,0-4.371,2.867-7.52,6.862-7.52,3.948,0,6.815,3.149,6.815,7.52C-11.444-8.6-14.311-5.452-18.259-5.452ZM8.389.141A12.948,12.948,0,0,1-4.536-12.784,12.958,12.958,0,0,1,8.389-25.756,13,13,0,0,1,21.361-12.784,12.988,12.988,0,0,1,8.389.141Zm0-20.445a7.5,7.5,0,0,0-7.473,7.52A7.492,7.492,0,0,0,8.389-5.311a7.492,7.492,0,0,0,7.473-7.473A7.5,7.5,0,0,0,8.389-20.3ZM41.947-25.9a2.728,2.728,0,0,0-2.726,2.726v11.938A5.507,5.507,0,0,1,33.77-5.452c-3.478,0-5.076-3.008-5.076-5.781V-23.171A2.728,2.728,0,0,0,25.967-25.9a2.728,2.728,0,0,0-2.726,2.726v11.938C23.241-4.841,27.753,0,33.77,0a10.567,10.567,0,0,0,5.687-1.6A2.814,2.814,0,0,0,41.947,0,2.738,2.738,0,0,0,44.72-2.726V-23.171A2.738,2.738,0,0,0,41.947-25.9ZM61.03-6.251a2.746,2.746,0,0,0-3.854.282,1.382,1.382,0,0,1-1.081.517,1.425,1.425,0,0,1-1.41-1.457V-20.445h3.478a2.728,2.728,0,0,0,2.726-2.726A2.728,2.728,0,0,0,58.162-25.9H54.685v-3.008a2.728,2.728,0,0,0-2.726-2.726,2.738,2.738,0,0,0-2.773,2.726V-25.9A2.734,2.734,0,0,0,46.6-23.171a2.734,2.734,0,0,0,2.585,2.726V-6.909A6.92,6.92,0,0,0,56.095,0a7.026,7.026,0,0,0,5.264-2.4A2.7,2.7,0,0,0,61.03-6.251Z" transform="translate(62.038 32.994)"/></svg>