<svg xmlns="http://www.w3.org/2000/svg" width="61" height="7.339" viewBox="0 0 61 7.339"><defs><style>.a{fill:#222;stroke:rgba(0,0,0,0);stroke-miterlimit:10;opacity:0.2;}</style></defs><path class="a" d="M43.536,8.4a1.9,1.9,0,0,1-.522-1.3.522.522,0,1,1,1.044,0,1.032,1.032,0,0,0,2.034,0c0-.477-.261-.621-1.143-.873a3.82,3.82,0,0,1-1.134-.468,1.477,1.477,0,0,1-.675-1.3,1.787,1.787,0,0,1,.486-1.215,2.135,2.135,0,0,1,2.9,0,1.755,1.755,0,0,1,.495,1.215.527.527,0,0,1-1.053,0c0-.27-.189-.738-.891-.738s-.891.468-.891.738c0,.351.135.486,1.053.756a3.786,3.786,0,0,1,1.2.495,1.592,1.592,0,0,1,.7,1.386,1.9,1.9,0,0,1-.522,1.3,2.265,2.265,0,0,1-3.078,0Zm-8.91-2.556A3.159,3.159,0,1,1,37.785,9,3.163,3.163,0,0,1,34.626,5.841Zm1.044,0a2.115,2.115,0,1,0,2.115-2.115A2.113,2.113,0,0,0,35.67,5.841ZM31.422,8.469V4.914L30.009,7.02a.524.524,0,0,1-.873,0L27.723,4.914V8.469a.522.522,0,1,1-1.044,0V3.2a.521.521,0,0,1,.369-.5.512.512,0,0,1,.585.207l1.944,2.88,1.935-2.88A.512.512,0,0,1,32.1,2.7a.521.521,0,0,1,.369.5V8.469a.522.522,0,1,1-1.044,0ZM20.559,9a.522.522,0,0,1-.522-.522V3.2a.53.53,0,0,1,.522-.531H24a.53.53,0,0,1,.522.531A.522.522,0,0,1,24,3.726H21.081V5.184h2.034a.527.527,0,0,1,0,1.053H21.081v1.71H24A.527.527,0,0,1,24,9ZM13.386,9a.522.522,0,0,1-.522-.522V3.2a.522.522,0,0,1,.522-.522h1.332a3.159,3.159,0,1,1,0,6.318Zm.522-1.044h.81a2.115,2.115,0,1,0,0-4.23h-.81ZM57,6.5A1.5,1.5,0,1,1,58.5,8,1.5,1.5,0,0,1,57,6.5ZM0,6.5A1.5,1.5,0,1,1,1.5,8,1.5,1.5,0,0,1,0,6.5Z" transform="translate(0.5 -2.161)"/></svg>