<svg xmlns="http://www.w3.org/2000/svg" width="125.366" height="57.09" viewBox="0 0 125.366 57.09"><defs><style>.a{fill:#fff;}.b{fill:rgba(255,255,255,0.4);}</style></defs><g transform="translate(-117.314 -39.91)"><path class="a" d="M-24.525,0a1.748,1.748,0,0,1-1.74-1.77V-13.62l-4.71,7.02a1.767,1.767,0,0,1-1.44.78,1.78,1.78,0,0,1-1.47-.78l-4.71-7.02V-1.77A1.748,1.748,0,0,1-40.335,0a1.748,1.748,0,0,1-1.74-1.77V-19.35A1.737,1.737,0,0,1-40.845-21a1.707,1.707,0,0,1,1.95.69l6.48,9.6,6.45-9.6a1.707,1.707,0,0,1,1.95-.69,1.737,1.737,0,0,1,1.23,1.65V-1.77A1.748,1.748,0,0,1-24.525,0ZM-7.7,0a1.741,1.741,0,0,1-1.74-1.74V-19.32A1.741,1.741,0,0,1-7.7-21.06a1.767,1.767,0,0,1,1.77,1.74V-1.74A1.767,1.767,0,0,1-7.7,0Zm31.02,0a1.692,1.692,0,0,1-1.38-.69L11.2-14.31V-1.74A1.741,1.741,0,0,1,9.465,0a1.741,1.741,0,0,1-1.74-1.74V-19.32a1.751,1.751,0,0,1,1.17-1.65,1.681,1.681,0,0,1,1.95.57L21.585-6.78V-19.32a1.748,1.748,0,0,1,1.74-1.77,1.748,1.748,0,0,1,1.74,1.77V-1.74a1.741,1.741,0,0,1-1.17,1.62A1.3,1.3,0,0,1,23.325,0Zm16.83,0a1.741,1.741,0,0,1-1.74-1.74V-19.32a1.741,1.741,0,0,1,1.74-1.74,1.767,1.767,0,0,1,1.77,1.74V-1.74A1.767,1.767,0,0,1,40.155,0Z" transform="translate(180 61)"/><path class="b" d="M-50.44,0a.644.644,0,0,1-.6-.42L-54.3-9.14-57.58-.42A.65.65,0,0,1-58.2,0a.638.638,0,0,1-.58-.46L-62.66-13.3a.648.648,0,0,1,.44-.8.616.616,0,0,1,.78.42L-58.1-2.64l3.2-8.54a.635.635,0,0,1,.6-.4.655.655,0,0,1,.6.4l3.2,8.54,3.32-11.04a.637.637,0,0,1,.8-.42.637.637,0,0,1,.42.8L-49.82-.46a.642.642,0,0,1-.6.46ZM-36,0a.632.632,0,0,1-.64-.64V-13.48a.632.632,0,0,1,.64-.64.632.632,0,0,1,.64.64V-.64A.632.632,0,0,1-36,0Zm13.82,0h-3.24a.632.632,0,0,1-.64-.64V-13.48a.632.632,0,0,1,.64-.64h3.24a7.059,7.059,0,0,1,7.06,7.06A7.059,7.059,0,0,1-22.18,0Zm-2.6-1.28h2.6a5.8,5.8,0,0,0,5.8-5.78,5.8,5.8,0,0,0-5.8-5.8h-2.6ZM1.14,0A7.072,7.072,0,0,1-5.92-7.06a7.072,7.072,0,0,1,7.06-7.06,7.1,7.1,0,0,1,5.32,2.4.633.633,0,0,1-.06.9.619.619,0,0,1-.9-.06,5.771,5.771,0,0,0-4.36-1.98,5.8,5.8,0,0,0-5.78,5.8A5.8,5.8,0,0,0,1.14-1.28a5.791,5.791,0,0,0,4.2-1.8V-5.92H1.64A.632.632,0,0,1,1-6.56a.632.632,0,0,1,.64-.64H5.98a.632.632,0,0,1,.64.64v3.72a.645.645,0,0,1-.16.42A7.048,7.048,0,0,1,1.14,0Zm23.9-1.28H17.3V-6.74h5.58a.644.644,0,0,0,.64-.64A.641.641,0,0,0,22.88-8H17.3v-4.86h7.74a.641.641,0,0,0,.64-.62.644.644,0,0,0-.64-.64H16.66a.632.632,0,0,0-.64.64V-.64a.632.632,0,0,0,.64.64h8.38a.644.644,0,0,0,.64-.64A.658.658,0,0,0,25.04-1.28ZM45.06-14.12H35.52a.632.632,0,0,0-.64.64.628.628,0,0,0,.64.62h4.14V-.64A.632.632,0,0,0,40.3,0a.628.628,0,0,0,.62-.64V-12.86h4.14a.628.628,0,0,0,.64-.62A.632.632,0,0,0,45.06-14.12ZM58.28,0A4.045,4.045,0,0,1,53.9-3.98a.632.632,0,0,1,.64-.64.644.644,0,0,1,.64.64,2.778,2.778,0,0,0,3.1,2.7,2.8,2.8,0,0,0,3.12-2.7c0-1.74-1.24-2.18-3.24-2.76-1.76-.52-3.96-1.14-3.96-3.68a3.767,3.767,0,0,1,4.08-3.7,3.773,3.773,0,0,1,4.1,3.7.632.632,0,0,1-.64.64.632.632,0,0,1-.64-.64,2.532,2.532,0,0,0-2.82-2.44,2.525,2.525,0,0,0-2.8,2.44c0,1.5,1.14,1.9,3.04,2.46,1.84.54,4.16,1.2,4.16,3.98A4.064,4.064,0,0,1,58.28,0Z" transform="translate(180 97)"/></g></svg>